solid Created by Gmsh
facet normal 0 0 1
  outer loop
    vertex 0 0 0
    vertex 0.1 0 0
    vertex 0.05 0.05 0
  endloop
endfacet
facet normal 0 0 1
  outer loop
    vertex 0 0 0
    vertex 0.05 0.05 0
    vertex 0 0.1 0
  endloop
endfacet
facet normal 0 -0 1
  outer loop
    vertex 0.1 0 0
    vertex 0.1 0.1 0
    vertex 0.05 0.05 0
  endloop
endfacet
facet normal 0 0 1
  outer loop
    vertex 0.1 0.1 0
    vertex 0 0.1 0
    vertex 0.05 0.05 0
  endloop
endfacet
facet normal 1 0 0
  outer loop
    vertex 0.1 0.05 0.05
    vertex 0.1 0 0
    vertex 0.1 0.1 0
  endloop
endfacet
facet normal 1 0 0
  outer loop
    vertex 0.1 0 0.1
    vertex 0.1 0 0
    vertex 0.1 0.05 0.05
  endloop
endfacet
facet normal 1 -0 0
  outer loop
    vertex 0.1 0.05 0.05
    vertex 0.1 0.1 0
    vertex 0.1 0.1 0.1
  endloop
endfacet
facet normal 1 0 -0
  outer loop
    vertex 0.1 0.05 0.05
    vertex 0.1 0.1 0.1
    vertex 0.1 0 0.1
  endloop
endfacet
facet normal 0 1 0
  outer loop
    vertex 0.05 0.1 0.05
    vertex 0.1 0.1 0
    vertex 0 0.1 0
  endloop
endfacet
facet normal 0 1 0
  outer loop
    vertex 0.1 0.1 0.1
    vertex 0.1 0.1 0
    vertex 0.05 0.1 0.05
  endloop
endfacet
facet normal 0 1 0
  outer loop
    vertex 0.05 0.1 0.05
    vertex 0 0.1 0
    vertex 0 0.1 0.1
  endloop
endfacet
facet normal -0 1 0
  outer loop
    vertex 0 0.1 0.1
    vertex 0.1 0.1 0.1
    vertex 0.05 0.1 0.05
  endloop
endfacet
facet normal 0 0 -1
  outer loop
    vertex 0 0.1 0.1
    vertex 0.1 0.1 0.1
    vertex 0.05 0.05 0.1
  endloop
endfacet
facet normal 0 0 -1
  outer loop
    vertex 0.05 0.05 0.1
    vertex 0.1 0.1 0.1
    vertex 0.1 0 0.1
  endloop
endfacet
facet normal 0 0 -1
  outer loop
    vertex 0 0 0.1
    vertex 0 0.1 0.1
    vertex 0.05 0.05 0.1
  endloop
endfacet
facet normal 0 -0 -1
  outer loop
    vertex 0.05 0.05 0.1
    vertex 0.1 0 0.1
    vertex 0 0 0.1
  endloop
endfacet
facet normal 0 -1 -0
  outer loop
    vertex 0.05 0 0.05
    vertex 0 0 0
    vertex 0.1 0 0
  endloop
endfacet
facet normal 0 -1 0
  outer loop
    vertex 0 0 0.1
    vertex 0 0 0
    vertex 0.05 0 0.05
  endloop
endfacet
facet normal 0 -1 0
  outer loop
    vertex 0.05 0 0.05
    vertex 0.1 0 0
    vertex 0.1 0 0.1
  endloop
endfacet
facet normal 0 -1 0
  outer loop
    vertex 0.05 0 0.05
    vertex 0.1 0 0.1
    vertex 0 0 0.1
  endloop
endfacet
facet normal 1 0 0
  outer loop
    vertex 0 0 0
    vertex 0 0.1 0
    vertex 0 0.05 0.05
  endloop
endfacet
facet normal 1 0 0
  outer loop
    vertex 0 0 0
    vertex 0 0.05 0.05
    vertex 0 0 0.1
  endloop
endfacet
facet normal 1 0 -0
  outer loop
    vertex 0 0.1 0
    vertex 0 0.1 0.1
    vertex 0 0.05 0.05
  endloop
endfacet
facet normal 1 0 0
  outer loop
    vertex 0 0.1 0.1
    vertex 0 0 0.1
    vertex 0 0.05 0.05
  endloop
endfacet
endsolid Created by Gmsh
